<svg version="1.1" viewBox="0.0 0.0 740.7979002624672 154.83202099737534" fill="none" stroke="none" stroke-linecap="square" stroke-miterlimit="10" xmlns:xlink="http://www.w3.org/1999/xlink" xmlns="http://www.w3.org/2000/svg"><clipPath id="p.0"><path d="m0 0l740.7979 0l0 154.83202l-740.7979 0l0 -154.83202z" clip-rule="nonzero"/></clipPath><g clip-path="url(#p.0)"><path fill="#000000" fill-opacity="0.0" d="m0 0l740.7979 0l0 154.83202l-740.7979 0z" fill-rule="evenodd"/><path fill="#000000" d="m42.521004 31.814886c4.993145 0.08996773 8.9066925 1.6193981 11.740643 4.588297c2.83395 2.9688988 4.250923 6.859955 4.250923 11.673168c0 4.6782646 -1.4094734 8.276928 -4.2284317 10.795994c-2.803955 2.5190659 -6.8824463 3.7785988 -12.235458 3.7785988l-18.08329 0l0 -30.836058zm-38.798103 -16.396416l0 98.24354l20.242489 0l0 -34.614655l17.745914 0c11.650677 0 20.767296 -2.7739716 27.349854 -8.321907c6.5975494 -5.562935 9.896324 -13.157619 9.896324 -22.784046c0 -6.3426476 -1.5069427 -11.995548 -4.5208206 -16.958708c-3.0138855 -4.978153 -7.3247833 -8.816727 -12.932701 -11.515726c-5.592922 -2.6989975 -12.078018 -4.048497 -19.45528 -4.048497z" fill-rule="evenodd"/><path fill="#000000" d="m126.797226 39.304607c-6.927429 0 -12.347916 3.3512573 -16.26146 10.053768l-0.53980255 -8.704269l-18.420662 0l0 73.007904l19.50026 0l0 -47.77227c2.2941513 -4.993145 7.1298523 -7.4897194 14.507118 -7.4897194c2.0242462 0 4.3633804 0.17993164 7.0173874 0.53979874l0.26991272 -18.758038c-1.8892975 -0.58478165 -3.913559 -0.8771744 -6.072754 -0.8771744z" fill-rule="evenodd"/><path fill="#000000" d="m228.14462 11.707349c-3.3737488 0 -6.042755 0.94464874 -8.007034 2.8339481c-1.9492798 1.8892984 -2.9239197 4.295905 -2.9239197 7.219821c0 2.9688988 0.99713135 5.397997 2.991394 7.2872944c2.009262 1.8892994 4.655777 2.83395 7.93956 2.83395c3.283783 0 5.9227905 -0.94465065 7.917053 -2.83395c2.009262 -1.8892975 3.0138855 -4.3183956 3.0138855 -7.2872944c0 -2.9239159 -0.98213196 -5.3305225 -2.9464111 -7.219821c-1.9492798 -1.8892994 -4.610779 -2.8339481 -7.9845276 -2.8339481zm-57.15129 43.3864c4.813202 0 8.546829 1.8668098 11.200836 5.600422c2.6540222 3.733612 3.981018 8.996666 3.981018 15.789139c0 7.9620514 -1.3269958 13.757393 -3.981018 17.386055c-2.654007 3.613655 -6.3426514 5.4204865 -11.065887 5.4204865c-4.8582 0 -8.591812 -1.8293228 -11.200851 -5.4879684c-2.609024 -3.6736374 -3.9135437 -8.974167 -3.9135437 -15.901596c0 -7.782112 1.3045197 -13.524979 3.9135437 -17.228607c2.6090393 -3.7186165 6.2976685 -5.5779305 11.065903 -5.5779305zm0 -15.789139c-6.927429 0 -13.0151825 1.5519257 -18.26323 4.655773c-5.2330627 3.1038475 -9.244064 7.4897194 -12.033035 13.157616c-2.7889557 5.6678963 -4.183441 12.123001 -4.183441 19.36531l0 0.8771744c0 11.605698 3.1338348 20.782288 9.4015045 27.529785c6.282669 6.7474976 14.6870575 10.121246 25.21315 10.121246c10.526093 0 18.915482 -3.3812485 25.168152 -10.143738c6.2526855 -6.7774887 9.379028 -15.766647 9.379028 -26.967491l-0.13494873 -4.993149c-0.7197418 -10.346157 -4.1984406 -18.53312 -10.436127 -24.560883c-6.222702 -6.0277634 -14.25972 -9.041645 -24.111053 -9.041645zm47.772263 1.3494987l0 77.12388c0 6.252678 -2.9463959 9.379021 -8.839218 9.379021c-1.7543488 0 -3.8010864 -0.2024231 -6.140213 -0.6072769l0 15.451767c3.0588531 0.76472473 6.2751617 1.1470795 9.6489105 1.1470795c8.052017 0 14.214722 -2.2416687 18.488144 -6.725006c4.273407 -4.468338 6.4101257 -10.728523 6.4101257 -18.780533l0 -76.98893z" fill-rule="evenodd"/><path fill="#000000" d="m284.95853 55.093746c4.1384583 0 7.3322754 1.1845627 9.581451 3.5536842c2.249176 2.354126 3.4187317 5.690384 3.5086975 10.008781l0 1.5519257l-27.124939 0c0.67474365 -4.8581924 2.21167 -8.591808 4.6108093 -11.200844c2.414093 -2.6090317 5.55542 -3.9135475 9.423981 -3.9135475zm0.067474365 -15.789139c-6.6575317 0 -12.58783 1.5669212 -17.790894 4.700756c-5.18808 3.118843 -9.199097 7.5721893 -12.033035 13.360043c-2.8339386 5.7728577 -4.2509155 12.325428 -4.2509155 19.657703l0 1.8892975c0 10.930946 3.3587494 19.680199 10.076248 26.247765c6.7325134 6.5675583 15.451782 9.851341 26.157806 9.851341c6.072754 0 11.605682 -1.1545792 16.598846 -3.4637146c4.9931335 -2.3241425 8.95166 -5.555435 11.87558 -9.693901l-9.581451 -10.728523c-4.228424 5.4429855 -10.098755 8.1644745 -17.610962 8.1644745c-4.858185 0 -8.876709 -1.4394684 -12.055511 -4.3183975c-3.1638489 -2.8789368 -5.0606384 -6.7025146 -5.690399 -11.470741l46.490265 0l0 -7.9620514c0 -11.560707 -2.8714294 -20.489895 -8.614319 -26.787556c-5.7278748 -6.2976646 -13.584961 -9.446495 -23.571259 -9.446495z" fill-rule="evenodd"/><path fill="#000000" d="m358.84363 39.304607c-10.436127 0 -18.6456 3.3512573 -24.628387 10.053768c-5.9827576 6.7025146 -8.974152 15.6766815 -8.974152 26.922508l0 1.2820282c0 11.695656 3.0138855 20.864754 9.0416565 27.507286c6.0277405 6.6275406 14.259705 9.941315 24.695831 9.941315c5.5779114 0 10.668549 -1.1320877 15.27182 -3.3962402c4.618286 -2.2791595 8.254425 -5.472969 10.908447 -9.581444c2.6540222 -4.123474 4.0035095 -8.6592865 4.0484924 -13.607452l-18.285706 0c-0.08996582 3.283783 -1.2595215 5.915306 -3.5086975 7.8945694c-2.249176 1.9792709 -5.173065 2.9689026 -8.7717285 2.9689026c-4.6782837 0 -8.16449 -1.6418915 -10.458618 -4.9256744c-2.294159 -3.283783 -3.4412231 -8.681778 -3.4412231 -16.193993l0 -2.0242462c0 -7.422249 1.1545715 -12.782753 3.4637146 -16.081532c2.3241272 -3.3137703 5.757843 -4.9706573 10.301178 -4.9706573c3.6886292 0 6.657501 1.1845627 8.906677 3.5536842c2.249176 2.354126 3.4187317 5.4204865 3.5086975 9.199081l18.285706 0c-0.08996582 -8.636791 -2.893921 -15.549225 -8.411865 -20.7373c-5.50296 -5.203068 -12.820251 -7.8046036 -21.951843 -7.8046036z" fill-rule="evenodd"/><path fill="#000000" d="m404.1868 22.705767l0 17.94834l-10.661041 0l0 14.304691l10.661041 0l0 39.337902c0.26989746 13.8098755 7.2423096 20.714813 20.917236 20.714813c4.0484924 0 7.9845276 -0.58478546 11.808105 -1.7543488l0 -14.777016c-1.6643677 0.31488037 -3.5761719 0.47232056 -5.735382 0.47232056c-2.9238892 0 -4.9031677 -0.58477783 -5.9377747 -1.7543488c-1.0346375 -1.1695633 -1.5519409 -3.1038437 -1.5519409 -5.802841l0 -36.43648l12.48288 0l0 -14.304691l-12.48288 0l0 -17.94834z" fill-rule="evenodd"/><path fill="#000000" fill-opacity="0.0" d="m450.6181 137.23753l286.45673 0" fill-rule="evenodd"/><path stroke="#000000" stroke-width="16.0" stroke-linejoin="round" stroke-linecap="butt" d="m450.6181 137.23753l286.45673 0" fill-rule="evenodd"/><path fill="#2ba5c0" d="m450.61792 17.594488l21.794403 98.24354l20.377441 0l15.991577 -65.72061l15.991547 65.72061l20.377441 0l21.794434 -98.24354l-20.175049 0l-13.225037 69.90405l-16.126526 -69.90405l-17.138641 0l-16.194 69.769104l-13.292572 -69.769104z" fill-rule="evenodd"/><path fill="#2ba5c0" d="m577.8757 17.594488l0 98.24354l65.85559 0l0 -16.261467l-45.6131 0l0 -26.315231l38.8656 0l0 -15.856617l-38.8656 0l0 -23.41381l45.47815 0l0 -16.396414z" fill-rule="evenodd"/><path fill="#2ba5c0" d="m690.0191 33.990902c5.577881 0 9.656372 0.9821396 12.235413 2.9464073c2.5940552 1.9492798 3.8910522 5.150589 3.8910522 9.603935c0 7.9620476 -5.105591 12.033035 -15.316772 12.212971l-14.979431 0l0 -24.763313zm4.3858643 39.068005c9.311523 0.13494873 13.967285 4.7007523 13.967285 13.697418c0 4.0035095 -1.34198 7.144844 -4.026001 9.423996c-2.6690063 2.2641602 -6.3876343 3.3962402 -11.155823 3.3962402l-17.341064 0l0 -26.517654zm-38.798096 -55.464417l0 98.24354l38.190796 0c11.155884 -0.08996582 19.74768 -2.5640488 25.775452 -7.422241c6.027771 -4.8582 9.041626 -12.010544 9.041626 -21.457039c0 -5.5329514 -1.4544678 -10.211212 -4.3633423 -14.03479c-2.893921 -3.8235855 -6.8599854 -6.365143 -11.898132 -7.624672c4.408386 -1.7093658 7.8496094 -4.393368 10.323669 -8.052013c2.474121 -3.6736336 3.7111206 -7.917061 3.7111206 -12.730274c0 -8.8167305 -3.0813599 -15.50425 -9.244019 -20.062557c-6.1627197 -4.573303 -15.204407 -6.859953 -27.124939 -6.859953z" fill-rule="evenodd"/></g></svg>